<?xml version="1.0" encoding="UTF-8"?>
<!DOCTYPE svg PUBLIC "-//W3C//DTD SVG 1.1//EN" "http://www.w3.org/Graphics/SVG/1.1/DTD/svg11.dtd">
<svg xmlns="http://www.w3.org/2000/svg" version="1.1" width="1420px" height="1422px" style="shape-rendering:geometricPrecision; text-rendering:geometricPrecision; image-rendering:optimizeQuality; fill-rule:evenodd; clip-rule:evenodd" xmlns:xlink="http://www.w3.org/1999/xlink">
<g><path style="opacity:1" fill="#fefefe" d="M -0.5,-0.5 C 436.833,-0.5 874.167,-0.5 1311.5,-0.5C 1282.63,3.50135 1254.29,10.3347 1226.5,20C 1171.93,40.783 1119.6,66.1164 1069.5,96C 1006.77,133.594 946.101,174.094 887.5,217.5C 838.737,170.238 790.404,122.404 742.5,74C 718.469,57.3368 694.469,57.3368 670.5,74C 649.653,95.0139 628.653,115.847 607.5,136.5C 562.5,91.8333 517.5,47.1667 472.5,2.5C 448.167,26.1667 424.167,50.1667 400.5,74.5C 444.82,119.32 489.32,163.986 534,208.5C 534.667,209.167 534.667,209.833 534,210.5C 514.32,230.347 494.486,250.014 474.5,269.5C 429.5,224.833 384.5,180.167 339.5,135.5C 315.014,159.486 290.68,183.653 266.5,208C 311.5,253 356.5,298 401.5,343C 381.333,363.167 361.167,383.333 341,403.5C 296,358.5 251,313.5 206,268.5C 181.653,292.68 157.486,317.014 133.5,341.5C 178.167,386.5 222.833,431.5 267.5,476.5C 248.014,496.486 228.347,516.32 208.5,536C 207.833,536.667 207.167,536.667 206.5,536C 161.986,491.32 117.32,446.82 72.5,402.5C 48.5138,425.986 24.6804,449.653 1,473.5C 0.333333,474.5 0.333333,475.5 1,476.5C 45.347,521.014 89.847,565.347 134.5,609.5C 113.847,630.653 93.0139,651.653 72,672.5C 58.5198,692.804 56.8531,714.137 67,736.5C 68.7519,739.672 70.7519,742.672 73,745.5C 145.347,817.68 217.514,890.014 289.5,962.5C 245.611,1015.88 203.445,1070.55 163,1126.5C 129.293,1173.95 100.959,1224.61 78,1278.5C 66.7445,1305.19 60.2445,1333.02 58.5,1362C 58.5199,1375.63 61.6866,1388.46 68,1400.5C 78.0519,1413.44 91.2185,1420.44 107.5,1421.5C 71.5,1421.5 35.5,1421.5 -0.5,1421.5C -0.5,947.5 -0.5,473.5 -0.5,-0.5 Z"/></g>
<g><path style="opacity:1" fill="#000000" d="M 1311.5,-0.5 C 1322.17,-0.5 1332.83,-0.5 1343.5,-0.5C 1388.49,5.15342 1413.82,30.4867 1419.5,75.5C 1419.5,83.8333 1419.5,92.1667 1419.5,100.5C 1415.96,134.327 1408.13,167.327 1396,199.5C 1375.26,252.979 1350.26,304.313 1321,353.5C 1283.9,414.917 1244.06,474.417 1201.5,532C 1247.63,579.127 1294.13,625.96 1341,672.5C 1354.44,692.82 1356.11,714.153 1346,736.5C 1344.25,739.672 1342.25,742.672 1340,745.5C 1319.32,766.014 1298.82,786.68 1278.5,807.5C 1324.32,853.82 1370.32,899.986 1416.5,946C 1392.33,970.167 1368.17,994.333 1344,1018.5C 1298.17,972.667 1252.33,926.833 1206.5,881C 1205.83,880.333 1205.17,880.333 1204.5,881C 1184.65,900.68 1164.99,920.514 1145.5,940.5C 1190.82,986.32 1236.32,1031.99 1282,1077.5C 1282.67,1078.5 1282.67,1079.5 1282,1080.5C 1258.32,1104.35 1234.49,1128.01 1210.5,1151.5C 1164.18,1105.68 1118.01,1059.68 1072,1013.5C 1051.83,1033.67 1031.67,1053.83 1011.5,1074C 1057.68,1120.01 1103.68,1166.18 1149.5,1212.5C 1125.51,1236.99 1101.35,1261.32 1077,1285.5C 1031.17,1239.67 985.333,1193.83 939.5,1148C 938.833,1147.33 938.167,1147.33 937.5,1148C 917.653,1167.68 897.986,1187.51 878.5,1207.5C 924.32,1253.82 970.32,1299.99 1016.5,1346C 992.32,1370.35 967.986,1394.51 943.5,1418.5C 897.18,1372.68 851.014,1326.68 805,1280.5C 783.108,1303.06 760.608,1324.89 737.5,1346C 713.945,1358.49 691.279,1357.16 669.5,1342C 623.653,1295.99 577.653,1250.15 531.5,1204.5C 475.301,1247.86 417.301,1288.69 357.5,1327C 311.774,1355.53 263.774,1379.86 213.5,1400C 187.09,1409.85 160.09,1417.02 132.5,1421.5C 124.167,1421.5 115.833,1421.5 107.5,1421.5C 91.2185,1420.44 78.0519,1413.44 68,1400.5C 61.6866,1388.46 58.5199,1375.63 58.5,1362C 60.2445,1333.02 66.7445,1305.19 78,1278.5C 100.959,1224.61 129.293,1173.95 163,1126.5C 203.445,1070.55 245.611,1015.88 289.5,962.5C 217.514,890.014 145.347,817.68 73,745.5C 70.7519,742.672 68.7519,739.672 67,736.5C 56.8531,714.137 58.5198,692.804 72,672.5C 93.0139,651.653 113.847,630.653 134.5,609.5C 89.847,565.347 45.347,521.014 1,476.5C 0.333333,475.5 0.333333,474.5 1,473.5C 24.6804,449.653 48.5138,425.986 72.5,402.5C 117.32,446.82 161.986,491.32 206.5,536C 207.167,536.667 207.833,536.667 208.5,536C 228.347,516.32 248.014,496.486 267.5,476.5C 222.833,431.5 178.167,386.5 133.5,341.5C 157.486,317.014 181.653,292.68 206,268.5C 251,313.5 296,358.5 341,403.5C 361.167,383.333 381.333,363.167 401.5,343C 356.5,298 311.5,253 266.5,208C 290.68,183.653 315.014,159.486 339.5,135.5C 384.5,180.167 429.5,224.833 474.5,269.5C 494.486,250.014 514.32,230.347 534,210.5C 534.667,209.833 534.667,209.167 534,208.5C 489.32,163.986 444.82,119.32 400.5,74.5C 424.167,50.1667 448.167,26.1667 472.5,2.5C 517.5,47.1667 562.5,91.8333 607.5,136.5C 628.653,115.847 649.653,95.0139 670.5,74C 694.469,57.3368 718.469,57.3368 742.5,74C 790.404,122.404 838.737,170.238 887.5,217.5C 946.101,174.094 1006.77,133.594 1069.5,96C 1119.6,66.1164 1171.93,40.783 1226.5,20C 1254.29,10.3347 1282.63,3.50135 1311.5,-0.5 Z"/></g>
<g><path style="opacity:1" fill="#fcfcfc" d="M 1343.5,-0.5 C 1368.83,-0.5 1394.17,-0.5 1419.5,-0.5C 1419.5,24.8333 1419.5,50.1667 1419.5,75.5C 1413.82,30.4867 1388.49,5.15342 1343.5,-0.5 Z"/></g>
<g><path style="opacity:1" fill="#f1b92c" d="M 490.5,25.5 C 490.628,27.6547 490.128,29.6547 489,31.5C 487.915,29.3426 486.749,29.1759 485.5,31C 486.167,31.3333 486.833,31.6667 487.5,32C 485,34.1667 482.5,36.3333 480,38.5C 479.086,37.3463 478.253,37.513 477.5,39C 478.167,39.3333 478.833,39.6667 479.5,40C 477,42.1667 474.5,44.3333 472,46.5C 471.086,45.3463 470.253,45.513 469.5,47C 470.167,47.3333 470.833,47.6667 471.5,48C 469,50.1667 466.5,52.3333 464,54.5C 463.086,53.3463 462.253,53.513 461.5,55C 462.167,55.3333 462.833,55.6667 463.5,56C 461,58.1667 458.5,60.3333 456,62.5C 455.086,61.3463 454.253,61.513 453.5,63C 454.167,63.3333 454.833,63.6667 455.5,64C 453,66.1667 450.5,68.3333 448,70.5C 447.086,69.3463 446.253,69.513 445.5,71C 446.167,71.3333 446.833,71.6667 447.5,72C 445,74.1667 442.5,76.3333 440,78.5C 439.086,77.3463 438.253,77.513 437.5,79C 438.167,79.3333 438.833,79.6667 439.5,80C 437.35,81.6491 435.35,83.4824 433.5,85.5C 432.011,85.5331 430.678,86.0331 429.5,87C 430.167,87.3333 430.833,87.6667 431.5,88C 428.232,89.1503 424.899,89.9836 421.5,90.5C 415.314,85.4936 410.147,79.827 406,73.5C 427.833,51.6667 449.667,29.8333 471.5,8C 478.495,12.8168 484.829,18.6502 490.5,25.5 Z"/></g>
<g><path style="opacity:1" fill="#eaaf26" d="M 490.5,25.5 C 492.833,27.1667 494.833,29.1667 496.5,31.5C 496.586,32.4959 496.252,33.3292 495.5,34C 496.861,35.5843 497.528,37.4176 497.5,39.5C 496.448,39.3505 495.448,39.5172 494.5,40C 474.597,60.4049 454.263,80.2382 433.5,99.5C 432.564,96.8219 430.897,96.1552 428.5,97.5C 425.833,95.5 423.5,93.1667 421.5,90.5C 424.899,89.9836 428.232,89.1503 431.5,88C 430.833,87.6667 430.167,87.3333 429.5,87C 430.678,86.0331 432.011,85.5331 433.5,85.5C 435.35,83.4824 437.35,81.6491 439.5,80C 438.833,79.6667 438.167,79.3333 437.5,79C 438.253,77.513 439.086,77.3463 440,78.5C 442.5,76.3333 445,74.1667 447.5,72C 446.833,71.6667 446.167,71.3333 445.5,71C 446.253,69.513 447.086,69.3463 448,70.5C 450.5,68.3333 453,66.1667 455.5,64C 454.833,63.6667 454.167,63.3333 453.5,63C 454.253,61.513 455.086,61.3463 456,62.5C 458.5,60.3333 461,58.1667 463.5,56C 462.833,55.6667 462.167,55.3333 461.5,55C 462.253,53.513 463.086,53.3463 464,54.5C 466.5,52.3333 469,50.1667 471.5,48C 470.833,47.6667 470.167,47.3333 469.5,47C 470.253,45.513 471.086,45.3463 472,46.5C 474.5,44.3333 477,42.1667 479.5,40C 478.833,39.6667 478.167,39.3333 477.5,39C 478.253,37.513 479.086,37.3463 480,38.5C 482.5,36.3333 485,34.1667 487.5,32C 486.833,31.6667 486.167,31.3333 485.5,31C 486.749,29.1759 487.915,29.3426 489,31.5C 490.128,29.6547 490.628,27.6547 490.5,25.5 Z"/></g>
<g><path style="opacity:1" fill="#e3a621" d="M 496.5,31.5 C 500.167,34.5 503.5,37.8333 506.5,41.5C 506.286,43.1439 506.62,44.6439 507.5,46C 506.74,47.4411 506.074,48.9411 505.5,50.5C 487.5,68.5 469.5,86.5 451.5,104.5C 448.839,106.158 446.173,107.824 443.5,109.5C 442.473,108.209 441.473,108.209 440.5,109.5C 436.167,105.833 432.167,101.833 428.5,97.5C 430.897,96.1552 432.564,96.8219 433.5,99.5C 454.263,80.2382 474.597,60.4049 494.5,40C 495.448,39.5172 496.448,39.3505 497.5,39.5C 497.528,37.4176 496.861,35.5843 495.5,34C 496.252,33.3292 496.586,32.4959 496.5,31.5 Z"/></g>
<g><path style="opacity:1" fill="#da9b1a" d="M 506.5,41.5 C 511.833,46.1667 516.833,51.1667 521.5,56.5C 521.699,59.0113 522.032,61.178 522.5,63C 521.5,63.3333 520.5,63.6667 519.5,64C 499.566,84.2807 480.066,103.447 461,121.5C 459.103,123.016 456.936,123.683 454.5,123.5C 449.5,119.167 444.833,114.5 440.5,109.5C 441.473,108.209 442.473,108.209 443.5,109.5C 446.173,107.824 448.839,106.158 451.5,104.5C 469.5,86.5 487.5,68.5 505.5,50.5C 506.074,48.9411 506.74,47.4411 507.5,46C 506.62,44.6439 506.286,43.1439 506.5,41.5 Z"/></g>
<g><path style="opacity:1" fill="#cc8a10" d="M 521.5,56.5 C 526.5,60.8333 531.167,65.5 535.5,70.5C 533.78,73.7311 531.447,76.5644 528.5,79C 529.654,79.9138 529.487,80.7471 528,81.5C 527.667,81.1667 527.333,80.8333 527,80.5C 519.5,88 512,95.5 504.5,103C 505.654,103.914 505.487,104.747 504,105.5C 503.667,105.167 503.333,104.833 503,104.5C 495.5,112 488,119.5 480.5,127C 481.654,127.914 481.487,128.747 480,129.5C 479.667,129.167 479.333,128.833 479,128.5C 476.833,130.667 474.667,132.833 472.5,135C 473.451,135.718 473.617,136.551 473,137.5C 471.701,137.034 470.201,137.034 468.5,137.5C 463.5,133.167 458.833,128.5 454.5,123.5C 456.936,123.683 459.103,123.016 461,121.5C 480.066,103.447 499.566,84.2807 519.5,64C 520.5,63.6667 521.5,63.3333 522.5,63C 522.032,61.178 521.699,59.0113 521.5,56.5 Z"/></g>
<g><path style="opacity:1" fill="#c5800a" d="M 535.5,70.5 C 538.167,72.5 540.5,74.8333 542.5,77.5C 542.539,78.5832 542.873,79.5832 543.5,80.5C 522.319,101.514 501.319,122.68 480.5,144C 479.255,144.791 477.922,145.291 476.5,145.5C 473.5,143.167 470.833,140.5 468.5,137.5C 470.201,137.034 471.701,137.034 473,137.5C 473.617,136.551 473.451,135.718 472.5,135C 474.667,132.833 476.833,130.667 479,128.5C 479.333,128.833 479.667,129.167 480,129.5C 481.487,128.747 481.654,127.914 480.5,127C 488,119.5 495.5,112 503,104.5C 503.333,104.833 503.667,105.167 504,105.5C 505.487,104.747 505.654,103.914 504.5,103C 512,95.5 519.5,88 527,80.5C 527.333,80.8333 527.667,81.1667 528,81.5C 529.487,80.7471 529.654,79.9138 528.5,79C 531.447,76.5644 533.78,73.7311 535.5,70.5 Z"/></g>
<g><path style="opacity:1" fill="#bb7503" d="M 542.5,77.5 C 551.167,85.5 559.5,93.8333 567.5,102.5C 565.586,103.185 563.586,103.685 561.5,104C 542.333,123.167 523.167,142.333 504,161.5C 503.349,164.257 502.516,167.257 501.5,170.5C 492.833,162.5 484.5,154.167 476.5,145.5C 477.922,145.291 479.255,144.791 480.5,144C 501.319,122.68 522.319,101.514 543.5,80.5C 542.873,79.5832 542.539,78.5832 542.5,77.5 Z"/></g>
<g><path style="opacity:1" fill="#fefefe" d="M 1419.5,100.5 C 1419.5,540.833 1419.5,981.167 1419.5,1421.5C 990.5,1421.5 561.5,1421.5 132.5,1421.5C 160.09,1417.02 187.09,1409.85 213.5,1400C 263.774,1379.86 311.774,1355.53 357.5,1327C 417.301,1288.69 475.301,1247.86 531.5,1204.5C 577.653,1250.15 623.653,1295.99 669.5,1342C 691.279,1357.16 713.945,1358.49 737.5,1346C 760.608,1324.89 783.108,1303.06 805,1280.5C 851.014,1326.68 897.18,1372.68 943.5,1418.5C 967.986,1394.51 992.32,1370.35 1016.5,1346C 970.32,1299.99 924.32,1253.82 878.5,1207.5C 897.986,1187.51 917.653,1167.68 937.5,1148C 938.167,1147.33 938.833,1147.33 939.5,1148C 985.333,1193.83 1031.17,1239.67 1077,1285.5C 1101.35,1261.32 1125.51,1236.99 1149.5,1212.5C 1103.68,1166.18 1057.68,1120.01 1011.5,1074C 1031.67,1053.83 1051.83,1033.67 1072,1013.5C 1118.01,1059.68 1164.18,1105.68 1210.5,1151.5C 1234.49,1128.01 1258.32,1104.35 1282,1080.5C 1282.67,1079.5 1282.67,1078.5 1282,1077.5C 1236.32,1031.99 1190.82,986.32 1145.5,940.5C 1164.99,920.514 1184.65,900.68 1204.5,881C 1205.17,880.333 1205.83,880.333 1206.5,881C 1252.33,926.833 1298.17,972.667 1344,1018.5C 1368.17,994.333 1392.33,970.167 1416.5,946C 1370.32,899.986 1324.32,853.82 1278.5,807.5C 1298.82,786.68 1319.32,766.014 1340,745.5C 1342.25,742.672 1344.25,739.672 1346,736.5C 1356.11,714.153 1354.44,692.82 1341,672.5C 1294.13,625.96 1247.63,579.127 1201.5,532C 1244.06,474.417 1283.9,414.917 1321,353.5C 1350.26,304.313 1375.26,252.979 1396,199.5C 1408.13,167.327 1415.96,134.327 1419.5,100.5 Z"/></g>
<g><path style="opacity:1" fill="#c7830b" d="M 567.5,102.5 C 573.167,107.5 578.5,112.833 583.5,118.5C 582.883,118.611 582.383,118.944 582,119.5C 580.667,117.833 579.333,116.167 578,114.5C 557.128,136.371 535.962,157.871 514.5,179C 516.899,181.245 517.899,183.745 517.5,186.5C 511.833,181.5 506.5,176.167 501.5,170.5C 502.516,167.257 503.349,164.257 504,161.5C 523.167,142.333 542.333,123.167 561.5,104C 563.586,103.685 565.586,103.185 567.5,102.5 Z"/></g>
<g><path style="opacity:1" fill="#fefefe" d="M 1208.5,117.5 C 1275.57,112.731 1306.07,143.731 1300,210.5C 1295.87,240.1 1288.2,268.767 1277,296.5C 1247.07,367.398 1209.74,433.732 1165,495.5C 1083.69,415.359 1002.86,334.693 922.5,253.5C 987.058,207.04 1056.39,168.54 1130.5,138C 1155.89,128.321 1181.89,121.487 1208.5,117.5 Z"/></g>
<g><path style="opacity:1" fill="#d39215" d="M 583.5,118.5 C 588.167,122.5 592.5,126.833 596.5,131.5C 594.968,132.677 593.468,134.011 592,135.5C 591.667,134.833 591.333,134.167 591,133.5C 571.5,153 552,172.5 532.5,192C 533.167,192.333 533.833,192.667 534.5,193C 532.627,194.704 530.96,196.537 529.5,198.5C 525.167,194.833 521.167,190.833 517.5,186.5C 517.899,183.745 516.899,181.245 514.5,179C 535.962,157.871 557.128,136.371 578,114.5C 579.333,116.167 580.667,117.833 582,119.5C 582.383,118.944 582.883,118.611 583.5,118.5 Z"/></g>
<g><path style="opacity:1" fill="#d79a1b" d="M 596.5,131.5 C 600.045,133.857 602.545,136.857 604,140.5C 582.167,162.333 560.333,184.167 538.5,206C 534.857,204.545 531.857,202.045 529.5,198.5C 530.96,196.537 532.627,194.704 534.5,193C 533.833,192.667 533.167,192.333 532.5,192C 552,172.5 571.5,153 591,133.5C 591.333,134.167 591.667,134.833 592,135.5C 593.468,134.011 594.968,132.677 596.5,131.5 Z"/></g>
<g><path style="opacity:1" fill="#f1b92c" d="M 355.5,157.5 C 355.459,159.745 354.625,160.412 353,159.5C 350.815,162.887 347.981,165.554 344.5,167.5C 342.719,171.07 340.052,173.737 336.5,175.5C 320.144,191.523 304.144,207.856 288.5,224.5C 282.702,219.203 277.035,213.703 271.5,208C 294,185.5 316.5,163 339,140.5C 344.703,146.035 350.203,151.702 355.5,157.5 Z"/></g>
<g><path style="opacity:1" fill="#ebb127" d="M 355.5,157.5 C 357.833,159.167 359.833,161.167 361.5,163.5C 359.753,165.675 358.92,168.008 359,170.5C 338.833,190.667 318.667,210.833 298.5,231C 297.181,231.195 295.847,231.028 294.5,230.5C 292.167,228.833 290.167,226.833 288.5,224.5C 304.144,207.856 320.144,191.523 336.5,175.5C 340.052,173.737 342.719,171.07 344.5,167.5C 347.981,165.554 350.815,162.887 353,159.5C 354.625,160.412 355.459,159.745 355.5,157.5 Z"/></g>
<g><path style="opacity:1" fill="#e3a721" d="M 361.5,163.5 C 367.5,168.833 373.167,174.5 378.5,180.5C 377.761,180.369 377.094,180.536 376.5,181C 377.696,181.654 377.696,182.154 376.5,182.5C 374.584,181.752 372.584,181.752 370.5,182.5C 370.579,183.93 370.246,185.264 369.5,186.5C 351.153,204.681 332.986,223.014 315,241.5C 314.612,240.572 313.945,239.905 313,239.5C 311.14,241.201 308.973,242.201 306.5,242.5C 302.167,238.833 298.167,234.833 294.5,230.5C 295.847,231.028 297.181,231.195 298.5,231C 318.667,210.833 338.833,190.667 359,170.5C 358.92,168.008 359.753,165.675 361.5,163.5 Z"/></g>
<g><path style="opacity:1" fill="#da9b1a" d="M 378.5,180.5 C 382.167,183.5 385.5,186.833 388.5,190.5C 385.721,191.559 385.054,193.393 386.5,196C 367.599,215.909 347.932,235.909 327.5,256C 325.482,256.505 323.482,257.005 321.5,257.5C 316.167,252.833 311.167,247.833 306.5,242.5C 308.973,242.201 311.14,241.201 313,239.5C 313.945,239.905 314.612,240.572 315,241.5C 332.986,223.014 351.153,204.681 369.5,186.5C 370.246,185.264 370.579,183.93 370.5,182.5C 372.584,181.752 374.584,181.752 376.5,182.5C 377.696,182.154 377.696,181.654 376.5,181C 377.094,180.536 377.761,180.369 378.5,180.5 Z"/></g>
<g><path style="opacity:1" fill="#cd8b10" d="M 388.5,190.5 C 393.167,194.5 397.5,198.833 401.5,203.5C 401.628,205.655 401.128,207.655 400,209.5C 399.667,209.167 399.333,208.833 399,208.5C 391.5,216 384,223.5 376.5,231C 377.654,231.914 377.487,232.747 376,233.5C 375.667,233.167 375.333,232.833 375,232.5C 367.5,240 360,247.5 352.5,255C 353.654,255.914 353.487,256.747 352,257.5C 351.667,257.167 351.333,256.833 351,256.5C 347.577,259.181 345.244,262.181 344,265.5C 343.667,265.167 343.333,264.833 343,264.5C 340.63,267.039 338.13,269.372 335.5,271.5C 330.5,267.167 325.833,262.5 321.5,257.5C 323.482,257.005 325.482,256.505 327.5,256C 347.932,235.909 367.599,215.909 386.5,196C 385.054,193.393 385.721,191.559 388.5,190.5 Z"/></g>
<g><path style="opacity:1" fill="#c48009" d="M 401.5,203.5 C 405.167,206.5 408.5,209.833 411.5,213.5C 390.475,234.021 369.142,255.187 347.5,277C 346.264,278.085 344.931,278.918 343.5,279.5C 340.5,277.167 337.833,274.5 335.5,271.5C 338.13,269.372 340.63,267.039 343,264.5C 343.333,264.833 343.667,265.167 344,265.5C 345.244,262.181 347.577,259.181 351,256.5C 351.333,256.833 351.667,257.167 352,257.5C 353.487,256.747 353.654,255.914 352.5,255C 360,247.5 367.5,240 375,232.5C 375.333,232.833 375.667,233.167 376,233.5C 377.487,232.747 377.654,231.914 376.5,231C 384,223.5 391.5,216 399,208.5C 399.333,208.833 399.667,209.167 400,209.5C 401.128,207.655 401.628,205.655 401.5,203.5 Z"/></g>
<g><path style="opacity:1" fill="#bb7403" d="M 411.5,213.5 C 419.5,220.833 427.167,228.5 434.5,236.5C 431.063,236.552 428.063,237.719 425.5,240C 406.333,259.167 387.167,278.333 368,297.5C 367.667,297.167 367.333,296.833 367,296.5C 366.939,298.686 366.772,300.686 366.5,302.5C 358.5,295.167 350.833,287.5 343.5,279.5C 344.931,278.918 346.264,278.085 347.5,277C 369.142,255.187 390.475,234.021 411.5,213.5 Z"/></g>
<g><path style="opacity:1" fill="#fefefe" d="M 778.5,230.5 C 864.632,315.465 950.632,400.632 1036.5,486C 1009.83,513 983.167,540 956.5,567C 961.333,571.833 966.167,576.667 971,581.5C 971.667,582.167 971.667,582.833 971,583.5C 922.446,632.054 873.946,680.554 825.5,729C 820.99,732.115 815.99,733.948 810.5,734.5C 794.423,730.981 778.423,727.147 762.5,723C 752.194,721.171 742.527,722.838 733.5,728C 711.096,742.064 688.429,755.731 665.5,769C 657.483,774.733 655.316,782.233 659,791.5C 673.187,815.279 667.354,831.779 641.5,841C 621.217,843.904 602.884,839.237 586.5,827C 577.019,819.02 567.685,810.853 558.5,802.5C 555.006,804.079 551.673,805.913 548.5,808C 547.5,808.667 546.5,808.667 545.5,808C 537.833,800.333 530.167,792.667 522.5,785C 519.358,785.088 516.858,786.588 515,789.5C 514.018,790.759 513.685,792.092 514,793.5C 521.681,801.014 529.181,808.681 536.5,816.5C 531.453,820.023 526.12,823.023 520.5,825.5C 513.41,819.915 506.744,813.748 500.5,807C 499.833,806.333 499.167,806.333 498.5,807C 496.69,809.644 494.69,812.144 492.5,814.5C 498.652,821.152 504.985,827.652 511.5,834C 503.167,839.833 494.833,845.667 486.5,851.5C 481.681,847.182 477.015,842.682 472.5,838C 471.833,837.333 471.167,837.333 470.5,838C 422.408,890.74 376.574,945.24 333,1001.5C 331.951,1002.52 330.784,1002.68 329.5,1002C 316.667,989.167 303.833,976.333 291,963.5C 290.333,962.833 290.333,962.167 291,961.5C 337.126,907.364 385.46,855.031 436,804.5C 436.667,803.5 436.667,802.5 436,801.5C 430.652,796.319 425.485,790.985 420.5,785.5C 426.333,777.167 432.167,768.833 438,760.5C 445,767.5 452,774.5 459,781.5C 462.259,778.945 464.593,775.945 466,772.5C 458.985,765.652 452.152,758.652 445.5,751.5C 448.752,746.666 451.752,741.666 454.5,736.5C 455.002,735.479 455.668,735.312 456.5,736C 464.167,743.667 471.833,751.333 479.5,759C 483.549,758.314 486.549,755.98 488.5,752C 480.543,743.042 472.21,734.375 463.5,726C 465.207,722.752 467.04,719.585 469,716.5C 469.667,715.167 469.667,713.833 469,712.5C 462,705.5 455,698.5 448,691.5C 438.705,680.245 432.039,667.579 428,653.5C 422.604,635.239 426.77,619.739 440.5,607C 446.54,602.824 453.206,601.491 460.5,603C 467.839,607.015 475.505,609.848 483.5,611.5C 490.073,611.63 495.24,608.963 499,603.5C 512.415,580.335 526.081,557.335 540,534.5C 544.202,524.913 545.535,514.913 544,504.5C 540.081,488.989 536.247,473.489 532.5,458C 532.796,453.111 534.296,448.611 537,444.5C 584.777,394.723 633.277,345.556 682.5,297C 683.167,296.333 683.833,296.333 684.5,297C 688.833,301.333 693.167,305.667 697.5,310C 698.5,310.667 699.5,310.667 700.5,310C 727.065,283.937 753.065,257.437 778.5,230.5 Z"/></g>
<g><path style="opacity:1" fill="#c7830b" d="M 434.5,236.5 C 438.5,239.833 442.167,243.5 445.5,247.5C 445.271,249.433 444.438,251.1 443,252.5C 442.851,249.721 442.017,249.221 440.5,251C 441.337,252.011 441.67,253.178 441.5,254.5C 440.448,254.351 439.448,254.517 438.5,255C 417.592,275.389 397.926,295.556 379.5,315.5C 374.833,311.5 370.5,307.167 366.5,302.5C 366.772,300.686 366.939,298.686 367,296.5C 367.333,296.833 367.667,297.167 368,297.5C 387.167,278.333 406.333,259.167 425.5,240C 428.063,237.719 431.063,236.552 434.5,236.5 Z"/></g>
<g><path style="opacity:1" fill="#d19014" d="M 445.5,247.5 C 450.833,252.167 455.833,257.167 460.5,262.5C 458.209,263.951 456.043,265.618 454,267.5C 453.577,266.044 452.744,265.544 451.5,266C 432.333,285.167 413.167,304.333 394,323.5C 393.333,324.833 393.333,326.167 394,327.5C 396.566,328.621 397.4,330.288 396.5,332.5C 390.5,327.167 384.833,321.5 379.5,315.5C 397.926,295.556 417.592,275.389 438.5,255C 439.448,254.517 440.448,254.351 441.5,254.5C 441.67,253.178 441.337,252.011 440.5,251C 442.017,249.221 442.851,249.721 443,252.5C 444.438,251.1 445.271,249.433 445.5,247.5 Z"/></g>
<g><path style="opacity:1" fill="#d79a1a" d="M 460.5,262.5 C 464.298,265.796 467.964,269.296 471.5,273C 449.5,295 427.5,317 405.5,339C 401.629,338.332 398.629,336.165 396.5,332.5C 397.4,330.288 396.566,328.621 394,327.5C 393.333,326.167 393.333,324.833 394,323.5C 413.167,304.333 432.333,285.167 451.5,266C 452.744,265.544 453.577,266.044 454,267.5C 456.043,265.618 458.209,263.951 460.5,262.5 Z"/></g>
<g><path style="opacity:1" fill="#f2ba2d" d="M 222.5,291.5 C 221.9,294.625 220.733,294.958 219,292.5C 216.647,294.86 214.647,297.527 213,300.5C 195.263,317.948 177.43,335.281 159.5,352.5C 157.962,354.243 156.962,356.243 156.5,358.5C 150.369,352.87 144.369,347.036 138.5,341C 160.5,319 182.5,297 204.5,275C 211.161,279.482 217.161,284.982 222.5,291.5 Z"/></g>
<g><path style="opacity:1" fill="#ecb127" d="M 222.5,291.5 C 225.167,293.5 227.5,295.833 229.5,298.5C 208.169,321.497 186.169,343.831 163.5,365.5C 160.833,363.5 158.5,361.167 156.5,358.5C 156.962,356.243 157.962,354.243 159.5,352.5C 177.43,335.281 195.263,317.948 213,300.5C 214.647,297.527 216.647,294.86 219,292.5C 220.733,294.958 221.9,294.625 222.5,291.5 Z"/></g>
<g><path style="opacity:1" fill="#e3a721" d="M 229.5,298.5 C 234.5,302.833 239.167,307.5 243.5,312.5C 241.975,315.938 239.309,317.938 235.5,318.5C 217.527,337.14 199.194,355.473 180.5,373.5C 179.996,376.342 178.329,377.675 175.5,377.5C 171.167,373.833 167.167,369.833 163.5,365.5C 186.169,343.831 208.169,321.497 229.5,298.5 Z"/></g>
<g><path style="opacity:1" fill="#da9b19" d="M 243.5,312.5 C 247.5,315.833 251.167,319.5 254.5,323.5C 232.422,347.234 210.422,369.567 188.5,390.5C 183.833,386.5 179.5,382.167 175.5,377.5C 178.329,377.675 179.996,376.342 180.5,373.5C 199.194,355.473 217.527,337.14 235.5,318.5C 239.309,317.938 241.975,315.938 243.5,312.5 Z"/></g>
<g><path style="opacity:1" fill="#cf8e12" d="M 254.5,323.5 C 258.5,326.833 262.167,330.5 265.5,334.5C 265.33,335.822 265.663,336.989 266.5,338C 265.285,340.096 264.451,339.929 264,337.5C 242.273,359.397 220.773,380.73 199.5,401.5C 195.5,398.167 191.833,394.5 188.5,390.5C 210.422,369.567 232.422,347.234 254.5,323.5 Z"/></g>
<g><path style="opacity:1" fill="#c7830b" d="M 265.5,334.5 C 269.833,338.167 273.833,342.167 277.5,346.5C 256.248,367.923 234.748,389.257 213,410.5C 212.667,409.833 212.333,409.167 212,408.5C 211.209,409.745 210.709,411.078 210.5,412.5C 206.5,409.167 202.833,405.5 199.5,401.5C 220.773,380.73 242.273,359.397 264,337.5C 264.451,339.929 265.285,340.096 266.5,338C 265.663,336.989 265.33,335.822 265.5,334.5 Z"/></g>
<g><path style="opacity:1" fill="#bc7503" d="M 277.5,346.5 C 284.833,353.167 291.833,360.167 298.5,367.5C 293.365,371.505 288.698,376.672 284.5,383C 282.671,383.273 281.171,384.107 280,385.5C 278.667,389.5 276,392.167 272,393.5C 270.667,397.5 268,400.167 264,401.5C 262.667,405.5 260,408.167 256,409.5C 254.667,413.5 252,416.167 248,417.5C 246.667,421.5 244,424.167 240,425.5C 239.31,428.196 237.81,430.363 235.5,432C 235.957,432.414 236.291,432.914 236.5,433.5C 235.311,434.429 233.978,434.762 232.5,434.5C 224.833,427.5 217.5,420.167 210.5,412.5C 210.709,411.078 211.209,409.745 212,408.5C 212.333,409.167 212.667,409.833 213,410.5C 234.748,389.257 256.248,367.923 277.5,346.5 Z"/></g>
<g><path style="opacity:1" fill="#c47f09" d="M 298.5,367.5 C 301.5,369.833 304.167,372.5 306.5,375.5C 288.634,393.525 269.801,412.192 250,431.5C 247.976,433.69 246.143,436.023 244.5,438.5C 242.444,440.098 240.444,440.765 238.5,440.5C 236.167,438.833 234.167,436.833 232.5,434.5C 233.978,434.762 235.311,434.429 236.5,433.5C 236.291,432.914 235.957,432.414 235.5,432C 237.81,430.363 239.31,428.196 240,425.5C 244,424.167 246.667,421.5 248,417.5C 252,416.167 254.667,413.5 256,409.5C 260,408.167 262.667,405.5 264,401.5C 268,400.167 270.667,397.5 272,393.5C 276,392.167 278.667,389.5 280,385.5C 281.171,384.107 282.671,383.273 284.5,383C 288.698,376.672 293.365,371.505 298.5,367.5 Z"/></g>
<g><path style="opacity:1" fill="#cd8a10" d="M 306.5,375.5 C 310.833,379.167 314.833,383.167 318.5,387.5C 296.548,409.786 274.548,432.119 252.5,454.5C 247.5,450.167 242.833,445.5 238.5,440.5C 240.444,440.765 242.444,440.098 244.5,438.5C 246.143,436.023 247.976,433.69 250,431.5C 269.801,412.192 288.634,393.525 306.5,375.5 Z"/></g>
<g><path style="opacity:1" fill="#d59416" d="M 318.5,387.5 C 320.833,389.167 322.833,391.167 324.5,393.5C 323.342,394.95 323.842,395.95 326,396.5C 326.281,398.905 325.615,398.905 324,396.5C 322.992,396.982 321.825,397.148 320.5,397C 320.833,397.333 321.167,397.667 321.5,398C 317.815,398.914 318.148,399.581 322.5,400C 320.844,401.829 318.844,403.163 316.5,404C 315.167,408 312.5,410.667 308.5,412C 307.167,416 304.5,418.667 300.5,420C 299.167,424 296.5,426.667 292.5,428C 291.167,432 288.5,434.667 284.5,436C 283.167,440 280.5,442.667 276.5,444C 275.167,448 272.5,450.667 268.5,452C 267.37,454.428 265.87,456.595 264,458.5C 263.311,457.643 262.478,456.977 261.5,456.5C 261.241,458.542 260.908,460.542 260.5,462.5C 257.5,460.167 254.833,457.5 252.5,454.5C 274.548,432.119 296.548,409.786 318.5,387.5 Z"/></g>
<g><path style="opacity:1" fill="#d89a1b" d="M 324.5,393.5 C 329.692,397.51 333.859,402.177 337,407.5C 314.986,429.681 292.82,451.681 270.5,473.5C 267.145,469.813 263.811,466.147 260.5,462.5C 260.908,460.542 261.241,458.542 261.5,456.5C 262.478,456.977 263.311,457.643 264,458.5C 265.87,456.595 267.37,454.428 268.5,452C 272.5,450.667 275.167,448 276.5,444C 280.5,442.667 283.167,440 284.5,436C 288.5,434.667 291.167,432 292.5,428C 296.5,426.667 299.167,424 300.5,420C 304.5,418.667 307.167,416 308.5,412C 312.5,410.667 315.167,408 316.5,404C 318.844,403.163 320.844,401.829 322.5,400C 318.148,399.581 317.815,398.914 321.5,398C 321.167,397.667 320.833,397.333 320.5,397C 321.825,397.148 322.992,396.982 324,396.5C 325.615,398.905 326.281,398.905 326,396.5C 323.842,395.95 323.342,394.95 324.5,393.5 Z"/></g>
<g><path style="opacity:1" fill="#f1b92c" d="M 90.5,425.5 C 90.0472,426.458 89.3805,427.292 88.5,428C 88.8333,428.333 89.1667,428.667 89.5,429C 87.9559,429.29 86.6226,429.956 85.5,431C 86.1667,431.333 86.8333,431.667 87.5,432C 85,434.167 82.5,436.333 80,438.5C 79.0862,437.346 78.2529,437.513 77.5,439C 78.1667,439.333 78.8333,439.667 79.5,440C 77,442.167 74.5,444.333 72,446.5C 71.0862,445.346 70.2529,445.513 69.5,447C 70.1667,447.333 70.8333,447.667 71.5,448C 69,450.167 66.5,452.333 64,454.5C 63.0862,453.346 62.2529,453.513 61.5,455C 62.1667,455.333 62.8333,455.667 63.5,456C 61,458.167 58.5,460.333 56,462.5C 55.0862,461.346 54.2529,461.513 53.5,463C 54.1667,463.333 54.8333,463.667 55.5,464C 53,466.167 50.5,468.333 48,470.5C 47.0862,469.346 46.2529,469.513 45.5,471C 46.1667,471.333 46.8333,471.667 47.5,472C 45,474.167 42.5,476.333 40,478.5C 39.0862,477.346 38.2529,477.513 37.5,479C 38.1667,479.333 38.8333,479.667 39.5,480C 37.3501,481.649 35.3501,483.482 33.5,485.5C 32.5745,486.641 31.7412,486.641 31,485.5C 28.8963,487.349 28.3963,489.515 29.5,492C 26.8877,491.641 24.221,491.141 21.5,490.5C 15.3139,485.494 10.1472,479.827 6,473.5C 27.8333,451.667 49.6667,429.833 71.5,408C 78.4953,412.817 84.8287,418.65 90.5,425.5 Z"/></g>
<g><path style="opacity:1" fill="#e7ac24" d="M 90.5,425.5 C 94.8333,429.167 98.8333,433.167 102.5,437.5C 102.649,438.552 102.483,439.552 102,440.5C 81,461.5 60,482.5 39,503.5C 37.3002,501.701 35.4669,501.368 33.5,502.5C 29.1667,498.833 25.1667,494.833 21.5,490.5C 24.221,491.141 26.8877,491.641 29.5,492C 28.3963,489.515 28.8963,487.349 31,485.5C 31.7412,486.641 32.5745,486.641 33.5,485.5C 35.3501,483.482 37.3501,481.649 39.5,480C 38.8333,479.667 38.1667,479.333 37.5,479C 38.2529,477.513 39.0862,477.346 40,478.5C 42.5,476.333 45,474.167 47.5,472C 46.8333,471.667 46.1667,471.333 45.5,471C 46.2529,469.513 47.0862,469.346 48,470.5C 50.5,468.333 53,466.167 55.5,464C 54.8333,463.667 54.1667,463.333 53.5,463C 54.2529,461.513 55.0862,461.346 56,462.5C 58.5,460.333 61,458.167 63.5,456C 62.8333,455.667 62.1667,455.333 61.5,455C 62.2529,453.513 63.0862,453.346 64,454.5C 66.5,452.333 69,450.167 71.5,448C 70.8333,447.667 70.1667,447.333 69.5,447C 70.2529,445.513 71.0862,445.346 72,446.5C 74.5,444.333 77,442.167 79.5,440C 78.8333,439.667 78.1667,439.333 77.5,439C 78.2529,437.513 79.0862,437.346 80,438.5C 82.5,436.333 85,434.167 87.5,432C 86.8333,431.667 86.1667,431.333 85.5,431C 86.6226,429.956 87.9559,429.29 89.5,429C 89.1667,428.667 88.8333,428.333 88.5,428C 89.3805,427.292 90.0472,426.458 90.5,425.5 Z"/></g>
<g><path style="opacity:1" fill="#dea11e" d="M 102.5,437.5 C 107.167,441.5 111.5,445.833 115.5,450.5C 115.631,451.239 115.464,451.906 115,452.5C 94.2838,473.54 72.6171,494.873 50,516.5C 49.2303,515.402 48.397,515.402 47.5,516.5C 42.5,512.167 37.8333,507.5 33.5,502.5C 35.4669,501.368 37.3002,501.701 39,503.5C 60,482.5 81,461.5 102,440.5C 102.483,439.552 102.649,438.552 102.5,437.5 Z"/></g>
<g><path style="opacity:1" fill="#d59516" d="M 115.5,450.5 C 119.5,453.833 123.167,457.5 126.5,461.5C 126.291,462.922 125.791,464.255 125,465.5C 104.32,485.68 83.8202,506.013 63.5,526.5C 63.7093,527.086 64.0426,527.586 64.5,528C 62.8659,528.494 61.1992,528.66 59.5,528.5C 55.1667,524.833 51.1667,520.833 47.5,516.5C 48.397,515.402 49.2303,515.402 50,516.5C 72.6171,494.873 94.2838,473.54 115,452.5C 115.464,451.906 115.631,451.239 115.5,450.5 Z"/></g>
<g><path style="opacity:1" fill="#ca870e" d="M 126.5,461.5 C 130.167,464.5 133.5,467.833 136.5,471.5C 136.751,473.17 137.418,474.67 138.5,476C 137.377,477.044 136.044,477.71 134.5,478C 115.667,496.833 96.8333,515.667 78,534.5C 77.7104,536.044 77.0437,537.377 76,538.5C 75.6667,538.167 75.3333,537.833 75,537.5C 74.7508,538.624 74.2508,539.624 73.5,540.5C 72.5832,539.873 71.5832,539.539 70.5,539.5C 66.5,536.167 62.8333,532.5 59.5,528.5C 61.1992,528.66 62.8659,528.494 64.5,528C 64.0426,527.586 63.7093,527.086 63.5,526.5C 83.8202,506.013 104.32,485.68 125,465.5C 125.791,464.255 126.291,462.922 126.5,461.5 Z"/></g>
<g><path style="opacity:1" fill="#bf7a06" d="M 136.5,471.5 C 140.833,475.167 144.833,479.167 148.5,483.5C 148.414,484.496 148.748,485.329 149.5,486C 127.939,508.727 105.939,530.894 83.5,552.5C 78.8333,548.5 74.5,544.167 70.5,539.5C 71.5832,539.539 72.5832,539.873 73.5,540.5C 74.2508,539.624 74.7508,538.624 75,537.5C 75.3333,537.833 75.6667,538.167 76,538.5C 77.0437,537.377 77.7104,536.044 78,534.5C 96.8333,515.667 115.667,496.833 134.5,478C 136.044,477.71 137.377,477.044 138.5,476C 137.418,474.67 136.751,473.17 136.5,471.5 Z"/></g>
<g><path style="opacity:1" fill="#ba7302" d="M 148.5,483.5 C 154.833,489.167 160.833,495.167 166.5,501.5C 164.664,502.811 162.664,503.978 160.5,505C 139.779,525.721 119.446,546.054 99.5,566C 100.598,566.77 100.598,567.603 99.5,568.5C 93.8333,563.5 88.5,558.167 83.5,552.5C 105.939,530.894 127.939,508.727 149.5,486C 148.748,485.329 148.414,484.496 148.5,483.5 Z"/></g>
<g><path style="opacity:1" fill="#fdfdfd" d="M 1164.5,497.5 C 1176.91,508.41 1188.91,519.91 1200.5,532C 1095.58,671.637 979.584,802.304 852.5,924C 750.271,1022.59 643.605,1115.59 532.5,1203C 531.833,1203.67 531.167,1203.67 530.5,1203C 521.333,1193.83 512.167,1184.67 503,1175.5C 502.333,1174.83 502.333,1174.17 503,1173.5C 564.101,1127.17 623.268,1078.34 680.5,1027C 758.818,956.021 835.318,882.854 910,807.5C 986.586,727.612 1057.92,643.612 1124,555.5C 1138.11,536.563 1151.61,517.23 1164.5,497.5 Z"/></g>
<g><path style="opacity:1" fill="#c7830b" d="M 166.5,501.5 C 171.5,505.833 176.167,510.5 180.5,515.5C 178.887,517.27 176.887,518.436 174.5,519C 154.063,539.777 133.73,559.777 113.5,579C 114.167,579.333 114.833,579.667 115.5,580C 114.619,580.708 113.953,581.542 113.5,582.5C 108.5,578.167 103.833,573.5 99.5,568.5C 100.598,567.603 100.598,566.77 99.5,566C 119.446,546.054 139.779,525.721 160.5,505C 162.664,503.978 164.664,502.811 166.5,501.5 Z"/></g>
<g><path style="opacity:1" fill="#d19014" d="M 180.5,515.5 C 186.5,520.833 192.167,526.5 197.5,532.5C 196.178,532.33 195.011,532.663 194,533.5C 193.05,530.108 190.883,528.941 187.5,530C 165.003,552.614 144.003,573.781 124.5,593.5C 120.5,590.167 116.833,586.5 113.5,582.5C 113.953,581.542 114.619,580.708 115.5,580C 114.833,579.667 114.167,579.333 113.5,579C 133.73,559.777 154.063,539.777 174.5,519C 176.887,518.436 178.887,517.27 180.5,515.5 Z"/></g>
<g><path style="opacity:1" fill="#d79a1b" d="M 197.5,532.5 C 200.719,534.528 202.886,537.195 204,540.5C 182.167,562.333 160.333,584.167 138.5,606C 133.177,602.859 128.51,598.692 124.5,593.5C 144.003,573.781 165.003,552.614 187.5,530C 190.883,528.941 193.05,530.108 194,533.5C 195.011,532.663 196.178,532.33 197.5,532.5 Z"/></g>
<g><path style="opacity:1" fill="#dd9f1d" d="M 1284.5,819.5 C 1283.2,820.882 1282.37,822.548 1282,824.5C 1262.5,844 1243,863.5 1223.5,883C 1221.31,883.926 1219.31,885.093 1217.5,886.5C 1213.63,883.814 1210.79,880.481 1209,876.5C 1230.83,854.667 1252.67,832.833 1274.5,811C 1278.48,812.794 1281.81,815.627 1284.5,819.5 Z"/></g>
<g><path style="opacity:1" fill="#d79718" d="M 1284.5,819.5 C 1286.83,821.167 1288.83,823.167 1290.5,825.5C 1290.52,827.06 1290.85,828.56 1291.5,830C 1289.59,832.248 1288.09,834.748 1287,837.5C 1283,838.833 1280.33,841.5 1279,845.5C 1275,846.833 1272.33,849.5 1271,853.5C 1267,854.833 1264.33,857.5 1263,861.5C 1259,862.833 1256.33,865.5 1255,869.5C 1251,870.833 1248.33,873.5 1247,877.5C 1242.5,879.333 1239.33,882.5 1237.5,887C 1234.93,887.901 1232.6,889.234 1230.5,891C 1231.75,892.494 1231.75,893.994 1230.5,895.5C 1229.19,894.088 1228.36,892.421 1228,890.5C 1226.89,892.037 1225.39,892.703 1223.5,892.5C 1221.17,890.833 1219.17,888.833 1217.5,886.5C 1219.31,885.093 1221.31,883.926 1223.5,883C 1243,863.5 1262.5,844 1282,824.5C 1282.37,822.548 1283.2,820.882 1284.5,819.5 Z"/></g>
<g><path style="opacity:1" fill="#ce8d12" d="M 1290.5,825.5 C 1295.5,829.833 1300.17,834.5 1304.5,839.5C 1283.92,860.584 1263.08,881.584 1242,902.5C 1241.67,903.5 1241.33,904.5 1241,905.5C 1239.55,905.264 1238.05,905.264 1236.5,905.5C 1231.83,901.5 1227.5,897.167 1223.5,892.5C 1225.39,892.703 1226.89,892.037 1228,890.5C 1228.36,892.421 1229.19,894.088 1230.5,895.5C 1231.75,893.994 1231.75,892.494 1230.5,891C 1232.6,889.234 1234.93,887.901 1237.5,887C 1239.33,882.5 1242.5,879.333 1247,877.5C 1248.33,873.5 1251,870.833 1255,869.5C 1256.33,865.5 1259,862.833 1263,861.5C 1264.33,857.5 1267,854.833 1271,853.5C 1272.33,849.5 1275,846.833 1279,845.5C 1280.33,841.5 1283,838.833 1287,837.5C 1288.09,834.748 1289.59,832.248 1291.5,830C 1290.85,828.56 1290.52,827.06 1290.5,825.5 Z"/></g>
<g><path style="opacity:1" fill="#c5800a" d="M 1304.5,839.5 C 1308.83,843.167 1312.83,847.167 1316.5,851.5C 1316.33,852.822 1316.66,853.989 1317.5,855C 1296.14,876.026 1275.47,897.026 1255.5,918C 1253.2,918.018 1250.87,917.851 1248.5,917.5C 1244.17,913.833 1240.17,909.833 1236.5,905.5C 1238.05,905.264 1239.55,905.264 1241,905.5C 1241.33,904.5 1241.67,903.5 1242,902.5C 1263.08,881.584 1283.92,860.584 1304.5,839.5 Z"/></g>
<g><path style="opacity:1" fill="#bb7403" d="M 1316.5,851.5 C 1324.83,859.167 1332.83,867.167 1340.5,875.5C 1337.46,876.735 1334.46,878.235 1331.5,880C 1311.98,900.183 1292.48,919.683 1273,938.5C 1273.76,940.391 1274.6,942.391 1275.5,944.5C 1266.17,935.833 1257.17,926.833 1248.5,917.5C 1250.87,917.851 1253.2,918.018 1255.5,918C 1275.47,897.026 1296.14,876.026 1317.5,855C 1316.66,853.989 1316.33,852.822 1316.5,851.5 Z"/></g>
<g><path style="opacity:1" fill="#c7820b" d="M 1340.5,875.5 C 1344.17,878.5 1347.5,881.833 1350.5,885.5C 1329.94,906.048 1309.1,927.048 1288,948.5C 1287.67,948.167 1287.33,947.833 1287,947.5C 1285.44,949.217 1284.61,951.217 1284.5,953.5C 1281.17,950.833 1278.17,947.833 1275.5,944.5C 1274.6,942.391 1273.76,940.391 1273,938.5C 1292.48,919.683 1311.98,900.183 1331.5,880C 1334.46,878.235 1337.46,876.735 1340.5,875.5 Z"/></g>
<g><path style="opacity:1" fill="#d29014" d="M 1350.5,885.5 C 1355.5,889.833 1360.17,894.5 1364.5,899.5C 1363.5,899.414 1362.67,899.748 1362,900.5C 1361.16,898.993 1360,898.493 1358.5,899C 1339,919.167 1319.17,939 1299,958.5C 1298.51,959.793 1298.34,961.127 1298.5,962.5C 1296.9,962.232 1295.57,962.566 1294.5,963.5C 1290.83,960.5 1287.5,957.167 1284.5,953.5C 1284.61,951.217 1285.44,949.217 1287,947.5C 1287.33,947.833 1287.67,948.167 1288,948.5C 1309.1,927.048 1329.94,906.048 1350.5,885.5 Z"/></g>
<g><path style="opacity:1" fill="#db9c1b" d="M 1364.5,899.5 C 1368.5,902.833 1372.17,906.5 1375.5,910.5C 1374.57,911.936 1373.4,913.269 1372,914.5C 1371.49,913.004 1371.99,911.837 1373.5,911C 1372.69,909.294 1371.36,908.461 1369.5,908.5C 1369.66,909.873 1369.49,911.207 1369,912.5C 1348.96,933.049 1328.79,952.715 1308.5,971.5C 1309.99,973.859 1310.32,976.193 1309.5,978.5C 1304.17,973.833 1299.17,968.833 1294.5,963.5C 1295.57,962.566 1296.9,962.232 1298.5,962.5C 1298.34,961.127 1298.51,959.793 1299,958.5C 1319.17,939 1339,919.167 1358.5,899C 1360,898.493 1361.16,898.993 1362,900.5C 1362.67,899.748 1363.5,899.414 1364.5,899.5 Z"/></g>
<g><path style="opacity:1" fill="#e5a923" d="M 1375.5,910.5 C 1380.17,914.5 1384.5,918.833 1388.5,923.5C 1386.35,923.372 1384.35,923.872 1382.5,925C 1363.83,945 1344.5,964.333 1324.5,983C 1324.83,983.333 1325.17,983.667 1325.5,984C 1323.94,984.318 1322.77,985.151 1322,986.5C 1321.55,984.071 1320.72,983.904 1319.5,986C 1321.37,986.953 1321.71,988.12 1320.5,989.5C 1316.5,986.167 1312.83,982.5 1309.5,978.5C 1310.32,976.193 1309.99,973.859 1308.5,971.5C 1328.79,952.715 1348.96,933.049 1369,912.5C 1369.49,911.207 1369.66,909.873 1369.5,908.5C 1371.36,908.461 1372.69,909.294 1373.5,911C 1371.99,911.837 1371.49,913.004 1372,914.5C 1373.4,913.269 1374.57,911.936 1375.5,910.5 Z"/></g>
<g><path style="opacity:1" fill="#efb62b" d="M 1388.5,923.5 C 1396.3,930.798 1403.96,938.298 1411.5,946C 1389,968.5 1366.5,991 1344,1013.5C 1335.96,1005.63 1328.13,997.632 1320.5,989.5C 1321.71,988.12 1321.37,986.953 1319.5,986C 1320.72,983.904 1321.55,984.071 1322,986.5C 1322.77,985.151 1323.94,984.318 1325.5,984C 1325.17,983.667 1324.83,983.333 1324.5,983C 1344.5,964.333 1363.83,945 1382.5,925C 1384.35,923.872 1386.35,923.372 1388.5,923.5 Z"/></g>
<g><path style="opacity:1" fill="#dd9f1d" d="M 1150.5,952.5 C 1150.41,953.496 1150.75,954.329 1151.5,955C 1130.39,976.113 1108.55,997.946 1086,1020.5C 1085.33,1019.75 1084.5,1019.41 1083.5,1019.5C 1080.37,1016.87 1077.37,1014.04 1074.5,1011C 1097,988.5 1119.5,966 1142,943.5C 1145.04,946.369 1147.87,949.369 1150.5,952.5 Z"/></g>
<g><path style="opacity:1" fill="#d79718" d="M 1150.5,952.5 C 1152.83,954.167 1154.83,956.167 1156.5,958.5C 1156.5,959.833 1156.5,961.167 1156.5,962.5C 1157.68,962.281 1158.68,962.614 1159.5,963.5C 1158.04,963.322 1156.71,964.156 1155.5,966C 1157.88,966.974 1157.54,967.641 1154.5,968C 1152.51,969.319 1151.35,971.152 1151,973.5C 1147,974.833 1144.33,977.5 1143,981.5C 1139,982.833 1136.33,985.5 1135,989.5C 1131,990.833 1128.33,993.5 1127,997.5C 1123,998.833 1120.33,1001.5 1119,1005.5C 1115,1006.83 1112.33,1009.5 1111,1013.5C 1106.5,1015.33 1103.33,1018.5 1101.5,1023C 1099.13,1023.54 1097.13,1024.7 1095.5,1026.5C 1093.18,1024.79 1090.85,1024.12 1088.5,1024.5C 1086.5,1023.17 1084.83,1021.5 1083.5,1019.5C 1084.5,1019.41 1085.33,1019.75 1086,1020.5C 1108.55,997.946 1130.39,976.113 1151.5,955C 1150.75,954.329 1150.41,953.496 1150.5,952.5 Z"/></g>
<g><path style="opacity:1" fill="#ce8d12" d="M 1156.5,958.5 C 1161.83,963.167 1166.83,968.167 1171.5,973.5C 1170.42,973.539 1169.42,973.873 1168.5,974.5C 1147.45,996.886 1125.78,1018.55 1103.5,1039.5C 1098.17,1034.83 1093.17,1029.83 1088.5,1024.5C 1090.85,1024.12 1093.18,1024.79 1095.5,1026.5C 1097.13,1024.7 1099.13,1023.54 1101.5,1023C 1103.33,1018.5 1106.5,1015.33 1111,1013.5C 1112.33,1009.5 1115,1006.83 1119,1005.5C 1120.33,1001.5 1123,998.833 1127,997.5C 1128.33,993.5 1131,990.833 1135,989.5C 1136.33,985.5 1139,982.833 1143,981.5C 1144.33,977.5 1147,974.833 1151,973.5C 1151.35,971.152 1152.51,969.319 1154.5,968C 1157.54,967.641 1157.88,966.974 1155.5,966C 1156.71,964.156 1158.04,963.322 1159.5,963.5C 1158.68,962.614 1157.68,962.281 1156.5,962.5C 1156.5,961.167 1156.5,959.833 1156.5,958.5 Z"/></g>
<g><path style="opacity:1" fill="#c5800a" d="M 1171.5,973.5 C 1175.83,977.167 1179.83,981.167 1183.5,985.5C 1182.74,986.268 1181.74,986.768 1180.5,987C 1180.83,987.333 1181.17,987.667 1181.5,988C 1180.77,989.399 1180.27,990.899 1180,992.5C 1160.17,1012.33 1140.33,1032.17 1120.5,1052C 1119.21,1052.49 1117.87,1052.66 1116.5,1052.5C 1111.83,1048.5 1107.5,1044.17 1103.5,1039.5C 1125.78,1018.55 1147.45,996.886 1168.5,974.5C 1169.42,973.873 1170.42,973.539 1171.5,973.5 Z"/></g>
<g><path style="opacity:1" fill="#bb7403" d="M 1183.5,985.5 C 1192.17,993.5 1200.5,1001.83 1208.5,1010.5C 1204.94,1010.41 1201.61,1011.24 1198.5,1013C 1179.33,1032.17 1160.17,1051.33 1141,1070.5C 1140.32,1071.78 1140.48,1072.95 1141.5,1074C 1140.58,1074.28 1139.92,1074.78 1139.5,1075.5C 1131.5,1068.17 1123.83,1060.5 1116.5,1052.5C 1117.87,1052.66 1119.21,1052.49 1120.5,1052C 1140.33,1032.17 1160.17,1012.33 1180,992.5C 1180.27,990.899 1180.77,989.399 1181.5,988C 1181.17,987.667 1180.83,987.333 1180.5,987C 1181.74,986.768 1182.74,986.268 1183.5,985.5 Z"/></g>
<g><path style="opacity:1" fill="#fefefe" d="M 330.5,1004.5 C 387.917,1060.42 444.917,1116.92 501.5,1174C 445.538,1216.33 386.205,1253.67 323.5,1286C 300.597,1297.29 276.931,1306.62 252.5,1314C 206.593,1327.73 185.426,1310.9 189,1263.5C 193.179,1236.63 201.179,1210.96 213,1186.5C 232.207,1147.02 254.207,1109.35 279,1073.5C 295.999,1050.34 313.165,1027.34 330.5,1004.5 Z"/></g>
<g><path style="opacity:1" fill="#c7820b" d="M 1208.5,1010.5 C 1212.5,1013.83 1216.17,1017.5 1219.5,1021.5C 1217.7,1022.61 1216.53,1021.94 1216,1019.5C 1214.51,1020.25 1214.35,1021.09 1215.5,1022C 1214.55,1022.62 1213.72,1022.45 1213,1021.5C 1212.67,1022.5 1212.33,1023.5 1212,1024.5C 1190.83,1044.53 1170.33,1065.2 1150.5,1086.5C 1146.5,1083.17 1142.83,1079.5 1139.5,1075.5C 1139.92,1074.78 1140.58,1074.28 1141.5,1074C 1140.48,1072.95 1140.32,1071.78 1141,1070.5C 1160.17,1051.33 1179.33,1032.17 1198.5,1013C 1201.61,1011.24 1204.94,1010.41 1208.5,1010.5 Z"/></g>
<g><path style="opacity:1" fill="#d29014" d="M 1219.5,1021.5 C 1223.83,1025.17 1227.83,1029.17 1231.5,1033.5C 1229.43,1032.55 1227.6,1031.89 1226,1031.5C 1204.6,1053.67 1182.76,1075.34 1160.5,1096.5C 1156.83,1093.5 1153.5,1090.17 1150.5,1086.5C 1170.33,1065.2 1190.83,1044.53 1212,1024.5C 1212.33,1023.5 1212.67,1022.5 1213,1021.5C 1213.72,1022.45 1214.55,1022.62 1215.5,1022C 1214.35,1021.09 1214.51,1020.25 1216,1019.5C 1216.53,1021.94 1217.7,1022.61 1219.5,1021.5 Z"/></g>
<g><path style="opacity:1" fill="#d99b1a" d="M 1231.5,1033.5 C 1235.5,1036.83 1239.17,1040.5 1242.5,1044.5C 1239.67,1043.54 1237.01,1043.71 1234.5,1045C 1233.17,1045.67 1233.17,1046.33 1234.5,1047C 1214.5,1067 1194.5,1087 1174.5,1107C 1175.17,1107.99 1175.17,1109.15 1174.5,1110.5C 1169.5,1106.17 1164.83,1101.5 1160.5,1096.5C 1182.76,1075.34 1204.6,1053.67 1226,1031.5C 1227.6,1031.89 1229.43,1032.55 1231.5,1033.5 Z"/></g>
<g><path style="opacity:1" fill="#e4a822" d="M 1242.5,1044.5 C 1246.83,1048.17 1250.83,1052.17 1254.5,1056.5C 1253.46,1057.79 1252.46,1059.13 1251.5,1060.5C 1251.79,1058.95 1251.29,1057.29 1250,1055.5C 1229.73,1075.77 1208.56,1096.94 1186.5,1119C 1188.58,1120.6 1189.25,1122.43 1188.5,1124.5C 1183.5,1120.17 1178.83,1115.5 1174.5,1110.5C 1175.17,1109.15 1175.17,1107.99 1174.5,1107C 1194.5,1087 1214.5,1067 1234.5,1047C 1233.17,1046.33 1233.17,1045.67 1234.5,1045C 1237.01,1043.71 1239.67,1043.54 1242.5,1044.5 Z"/></g>
<g><path style="opacity:1" fill="#eab027" d="M 1254.5,1056.5 C 1257.5,1058.83 1260.17,1061.5 1262.5,1064.5C 1260.89,1063.55 1259.39,1063.21 1258,1063.5C 1237.05,1084.45 1216.05,1105.45 1195,1126.5C 1194.51,1127.79 1194.34,1129.13 1194.5,1130.5C 1192.17,1128.83 1190.17,1126.83 1188.5,1124.5C 1189.25,1122.43 1188.58,1120.6 1186.5,1119C 1208.56,1096.94 1229.73,1075.77 1250,1055.5C 1251.29,1057.29 1251.79,1058.95 1251.5,1060.5C 1252.46,1059.13 1253.46,1057.79 1254.5,1056.5 Z"/></g>
<g><path style="opacity:1" fill="#f2ba2d" d="M 1262.5,1064.5 C 1268.35,1069.17 1273.19,1074.51 1277,1080.5C 1255.17,1102.33 1233.33,1124.17 1211.5,1146C 1205.17,1141.85 1199.51,1136.69 1194.5,1130.5C 1194.34,1129.13 1194.51,1127.79 1195,1126.5C 1216.05,1105.45 1237.05,1084.45 1258,1063.5C 1259.39,1063.21 1260.89,1063.55 1262.5,1064.5 Z"/></g>
<g><path style="opacity:1" fill="#dc9e1c" d="M 1026.5,1095.5 C 1004.91,1115.04 983.914,1135.54 963.5,1157C 961.817,1158.29 960.151,1159.45 958.5,1160.5C 952.702,1155.2 947.035,1149.7 941.5,1144C 963.5,1122 985.5,1100 1007.5,1078C 1014.5,1082.82 1020.83,1088.65 1026.5,1095.5 Z"/></g>
<g><path style="opacity:1" fill="#cf8e12" d="M 1026.5,1095.5 C 1030.5,1098.83 1034.17,1102.5 1037.5,1106.5C 1016.17,1128.17 994.172,1150.5 971.5,1173.5C 966.833,1169.5 962.5,1165.17 958.5,1160.5C 960.151,1159.45 961.817,1158.29 963.5,1157C 983.914,1135.54 1004.91,1115.04 1026.5,1095.5 Z"/></g>
<g><path style="opacity:1" fill="#c6810a" d="M 1037.5,1106.5 C 1042.17,1110.5 1046.5,1114.83 1050.5,1119.5C 1028.51,1141.82 1006.51,1164.15 984.5,1186.5C 979.833,1182.5 975.5,1178.17 971.5,1173.5C 994.172,1150.5 1016.17,1128.17 1037.5,1106.5 Z"/></g>
<g><path style="opacity:1" fill="#bc7503" d="M 1050.5,1119.5 C 1058.5,1126.83 1066.17,1134.5 1073.5,1142.5C 1072.81,1143.77 1071.98,1143.77 1071,1142.5C 1052.04,1159.46 1033.71,1177.13 1016,1195.5C 1014.1,1199.4 1011.43,1202.74 1008,1205.5C 1007.38,1206.45 1007.55,1207.28 1008.5,1208C 1007.91,1208.46 1007.24,1208.63 1006.5,1208.5C 998.833,1201.5 991.5,1194.17 984.5,1186.5C 1006.51,1164.15 1028.51,1141.82 1050.5,1119.5 Z"/></g>
<g><path style="opacity:1" fill="#c58009" d="M 1073.5,1142.5 C 1075.83,1144.17 1077.83,1146.17 1079.5,1148.5C 1078.32,1149.97 1077.32,1151.64 1076.5,1153.5C 1055.1,1174.56 1034.43,1195.56 1014.5,1216.5C 1011.5,1214.17 1008.83,1211.5 1006.5,1208.5C 1007.24,1208.63 1007.91,1208.46 1008.5,1208C 1007.55,1207.28 1007.38,1206.45 1008,1205.5C 1011.43,1202.74 1014.1,1199.4 1016,1195.5C 1033.71,1177.13 1052.04,1159.46 1071,1142.5C 1071.98,1143.77 1072.81,1143.77 1073.5,1142.5 Z"/></g>
<g><path style="opacity:1" fill="#d08f13" d="M 1079.5,1148.5 C 1085.17,1153.5 1090.5,1158.83 1095.5,1164.5C 1093.86,1165.16 1092.2,1165.83 1090.5,1166.5C 1069.11,1188.56 1048.11,1209.56 1027.5,1229.5C 1022.83,1225.5 1018.5,1221.17 1014.5,1216.5C 1034.43,1195.56 1055.1,1174.56 1076.5,1153.5C 1077.32,1151.64 1078.32,1149.97 1079.5,1148.5 Z"/></g>
<g><path style="opacity:1" fill="#dc9d1b" d="M 1095.5,1164.5 C 1099.5,1167.83 1103.17,1171.5 1106.5,1175.5C 1084.97,1196.86 1063.14,1218.19 1041,1239.5C 1040.54,1240.74 1041.04,1241.58 1042.5,1242C 1041.94,1242.38 1041.61,1242.88 1041.5,1243.5C 1036.5,1239.17 1031.83,1234.5 1027.5,1229.5C 1048.11,1209.56 1069.11,1188.56 1090.5,1166.5C 1092.2,1165.83 1093.86,1165.16 1095.5,1164.5 Z"/></g>
<g><path style="opacity:1" fill="#e5aa23" d="M 1106.5,1175.5 C 1111.17,1179.5 1115.5,1183.83 1119.5,1188.5C 1097.4,1210.1 1075.4,1231.93 1053.5,1254C 1054.74,1254.69 1054.74,1255.19 1053.5,1255.5C 1049.17,1251.83 1045.17,1247.83 1041.5,1243.5C 1041.61,1242.88 1041.94,1242.38 1042.5,1242C 1041.04,1241.58 1040.54,1240.74 1041,1239.5C 1063.14,1218.19 1084.97,1196.86 1106.5,1175.5 Z"/></g>
<g><path style="opacity:1" fill="#f1b82c" d="M 1119.5,1188.5 C 1128.33,1196.49 1136.5,1204.83 1144,1213.5C 1121.99,1235.68 1099.82,1257.68 1077.5,1279.5C 1069.15,1271.81 1061.15,1263.81 1053.5,1255.5C 1054.74,1255.19 1054.74,1254.69 1053.5,1254C 1075.4,1231.93 1097.4,1210.1 1119.5,1188.5 Z"/></g>
<g><path style="opacity:1" fill="#d79718" d="M 884.5,1219.5 C 886.833,1221.17 888.833,1223.17 890.5,1225.5C 890.423,1226.75 889.756,1227.58 888.5,1228C 889.167,1229.33 889.833,1230.67 890.5,1232C 888.513,1233.32 887.346,1235.15 887,1237.5C 883,1238.83 880.333,1241.5 879,1245.5C 875,1246.83 872.333,1249.5 871,1253.5C 867,1254.83 864.333,1257.5 863,1261.5C 859,1262.83 856.333,1265.5 855,1269.5C 851,1270.83 848.333,1273.5 847,1277.5C 842.5,1279.33 839.333,1282.5 837.5,1287C 834.833,1288.33 832.167,1289.67 829.5,1291C 829.833,1291.33 830.167,1291.67 830.5,1292C 829.264,1293.39 827.931,1294.55 826.5,1295.5C 822.833,1292.5 819.5,1289.17 816.5,1285.5C 818.39,1285.3 819.89,1285.96 821,1287.5C 821.5,1287 822,1286.5 822.5,1286C 821.483,1284.95 821.316,1283.78 822,1282.5C 822.333,1283.17 822.667,1283.83 823,1284.5C 843.138,1263.36 863.638,1242.53 884.5,1222C 883.402,1221.23 883.402,1220.4 884.5,1219.5 Z"/></g>
<g><path style="opacity:1" fill="#cd8b10" d="M 890.5,1225.5 C 896.5,1230.83 902.167,1236.5 907.5,1242.5C 908.348,1244.48 908.848,1246.48 909,1248.5C 889.333,1267.83 869.667,1287.17 850,1306.5C 848.303,1309.02 846.47,1311.35 844.5,1313.5C 838.167,1307.83 832.167,1301.83 826.5,1295.5C 827.931,1294.55 829.264,1293.39 830.5,1292C 830.167,1291.67 829.833,1291.33 829.5,1291C 832.167,1289.67 834.833,1288.33 837.5,1287C 839.333,1282.5 842.5,1279.33 847,1277.5C 848.333,1273.5 851,1270.83 855,1269.5C 856.333,1265.5 859,1262.83 863,1261.5C 864.333,1257.5 867,1254.83 871,1253.5C 872.333,1249.5 875,1246.83 879,1245.5C 880.333,1241.5 883,1238.83 887,1237.5C 887.346,1235.15 888.513,1233.32 890.5,1232C 889.833,1230.67 889.167,1229.33 888.5,1228C 889.756,1227.58 890.423,1226.75 890.5,1225.5 Z"/></g>
<g><path style="opacity:1" fill="#c07b06" d="M 907.5,1242.5 C 912.5,1246.83 917.167,1251.5 921.5,1256.5C 922.363,1257.94 922.363,1259.27 921.5,1260.5C 900.127,1281.37 878.96,1302.37 858,1323.5C 856.612,1323.79 855.112,1323.45 853.5,1322.5C 850.167,1319.83 847.167,1316.83 844.5,1313.5C 846.47,1311.35 848.303,1309.02 850,1306.5C 869.667,1287.17 889.333,1267.83 909,1248.5C 908.848,1246.48 908.348,1244.48 907.5,1242.5 Z"/></g>
<g><path style="opacity:1" fill="#dda01e" d="M 884.5,1219.5 C 883.402,1220.4 883.402,1221.23 884.5,1222C 863.638,1242.53 843.138,1263.36 823,1284.5C 822.667,1283.83 822.333,1283.17 822,1282.5C 821.316,1283.78 821.483,1284.95 822.5,1286C 822,1286.5 821.5,1287 821,1287.5C 819.89,1285.96 818.39,1285.3 816.5,1285.5C 812.955,1283.14 810.455,1280.14 809,1276.5C 830.833,1254.67 852.667,1232.83 874.5,1211C 878.481,1212.79 881.814,1215.63 884.5,1219.5 Z"/></g>
<g><path style="opacity:1" fill="#ba7402" d="M 921.5,1256.5 C 928.167,1262.5 934.5,1268.83 940.5,1275.5C 938.983,1275.51 937.816,1276.18 937,1277.5C 936.282,1276.55 935.449,1276.38 934.5,1277C 913.796,1298.04 893.129,1318.38 872.5,1338C 872.905,1338.95 873.572,1339.61 874.5,1340C 873.748,1340.67 873.414,1341.5 873.5,1342.5C 866.5,1336.17 859.833,1329.5 853.5,1322.5C 855.112,1323.45 856.612,1323.79 858,1323.5C 878.96,1302.37 900.127,1281.37 921.5,1260.5C 922.363,1259.27 922.363,1257.94 921.5,1256.5 Z"/></g>
<g><path style="opacity:1" fill="#c7820b" d="M 940.5,1275.5 C 944.167,1278.5 947.5,1281.83 950.5,1285.5C 929.673,1306.1 909.006,1326.93 888.5,1348C 886.833,1349 885.167,1350 883.5,1351C 884.252,1351.67 884.586,1352.5 884.5,1353.5C 880.5,1350.17 876.833,1346.5 873.5,1342.5C 873.414,1341.5 873.748,1340.67 874.5,1340C 873.572,1339.61 872.905,1338.95 872.5,1338C 893.129,1318.38 913.796,1298.04 934.5,1277C 935.449,1276.38 936.282,1276.55 937,1277.5C 937.816,1276.18 938.983,1275.51 940.5,1275.5 Z"/></g>
<g><path style="opacity:1" fill="#d08f13" d="M 950.5,1285.5 C 955.167,1289.5 959.5,1293.83 963.5,1298.5C 962.178,1298.67 961.011,1298.34 960,1297.5C 938.86,1319.06 917.527,1340.39 896,1361.5C 895.517,1362.45 895.351,1363.45 895.5,1364.5C 891.5,1361.17 887.833,1357.5 884.5,1353.5C 884.586,1352.5 884.252,1351.67 883.5,1351C 885.167,1350 886.833,1349 888.5,1348C 909.006,1326.93 929.673,1306.1 950.5,1285.5 Z"/></g>
<g><path style="opacity:1" fill="#db9c1b" d="M 963.5,1298.5 C 967.833,1302.17 971.833,1306.17 975.5,1310.5C 974.571,1311.94 973.405,1313.27 972,1314.5C 971.493,1313 971.993,1311.84 973.5,1311C 971.45,1307.93 969.95,1308.43 969,1312.5C 949.29,1332.71 929.123,1352.38 908.5,1371.5C 908.92,1373.33 908.92,1375.33 908.5,1377.5C 903.833,1373.5 899.5,1369.17 895.5,1364.5C 895.351,1363.45 895.517,1362.45 896,1361.5C 917.527,1340.39 938.86,1319.06 960,1297.5C 961.011,1298.34 962.178,1298.67 963.5,1298.5 Z"/></g>
<g><path style="opacity:1" fill="#e4a822" d="M 975.5,1310.5 C 980.167,1314.5 984.5,1318.83 988.5,1323.5C 987.883,1323.61 987.383,1323.94 987,1324.5C 985.638,1323.08 984.138,1322.24 982.5,1322C 962.833,1343 942.5,1363.33 921.5,1383C 922.167,1383.67 922.833,1384.33 923.5,1385C 922.117,1386.27 921.117,1387.77 920.5,1389.5C 916.167,1385.83 912.167,1381.83 908.5,1377.5C 908.92,1375.33 908.92,1373.33 908.5,1371.5C 929.123,1352.38 949.29,1332.71 969,1312.5C 969.95,1308.43 971.45,1307.93 973.5,1311C 971.993,1311.84 971.493,1313 972,1314.5C 973.405,1313.27 974.571,1311.94 975.5,1310.5 Z"/></g>
<g><path style="opacity:1" fill="#efb62a" d="M 988.5,1323.5 C 996.298,1330.8 1003.96,1338.3 1011.5,1346C 989,1368.5 966.5,1391 944,1413.5C 935.964,1405.63 928.131,1397.63 920.5,1389.5C 921.117,1387.77 922.117,1386.27 923.5,1385C 922.833,1384.33 922.167,1383.67 921.5,1383C 942.5,1363.33 962.833,1343 982.5,1322C 984.138,1322.24 985.638,1323.08 987,1324.5C 987.383,1323.94 987.883,1323.61 988.5,1323.5 Z"/></g>
</svg>
